<?xml version="1.0" standalone="no"?>
<!DOCTYPE svg PUBLIC "-//W3C//DTD SVG 20010904//EN"
 "http://www.w3.org/TR/2001/REC-SVG-20010904/DTD/svg10.dtd">
<svg version="1.0" xmlns="http://www.w3.org/2000/svg"
 width="491.000000pt" height="412.000000pt" viewBox="0 0 491.000000 412.000000"
 preserveAspectRatio="xMidYMid meet">

<g transform="translate(0.000000,412.000000) scale(0.100000,-0.100000)"
fill="#000000" stroke="none">
<path d="M2280 3715 c-679 -98 -1211 -550 -1410 -1193 -44 -143 -61 -258 -67
-439 -8 -243 24 -449 102 -653 188 -493 568 -860 1063 -1026 405 -136 871
-106 1257 81 298 144 540 362 717 647 186 300 281 690 249 1026 -41 431 -202
775 -505 1078 -273 272 -582 424 -971 479 -127 18 -315 18 -435 0z m427 -155
c669 -87 1216 -628 1319 -1305 20 -135 18 -350 -6 -490 -102 -595 -547 -1087
-1123 -1240 -521 -139 -1064 -2 -1450 365 -249 237 -395 499 -468 842 -33 150
-33 426 -1 585 116 580 538 1040 1097 1198 78 22 169 41 230 48 65 8 334 6
402 -3z"/>
<path d="M2618 3299 c-39 -15 -48 -54 -48 -205 l0 -134 -80 0 -80 0 0 153 c0
173 -5 187 -72 187 -61 0 -67 -16 -70 -185 l-3 -150 -87 -3 -88 -3 0 141 c0
177 -9 200 -82 200 -61 0 -68 -20 -68 -192 l0 -148 -77 0 c-94 0 -161 -27
-212 -85 -48 -55 -63 -98 -69 -197 l-5 -88 -143 0 c-78 0 -150 -3 -159 -6 -8
-4 -23 -20 -31 -36 -12 -24 -13 -36 -4 -58 18 -43 48 -50 200 -50 l140 0 0
-90 0 -90 -154 0 -155 0 -20 -26 c-28 -35 -26 -69 4 -99 23 -24 28 -25 175
-25 l150 0 0 -90 0 -90 -150 0 c-147 0 -152 -1 -175 -25 -30 -30 -32 -64 -4
-99 l20 -26 155 0 154 0 0 -90 0 -90 -140 0 c-149 0 -181 -7 -199 -47 -16 -34
-14 -47 10 -77 l20 -26 155 0 154 0 0 -63 c0 -101 23 -164 83 -222 61 -59 105
-75 205 -75 l71 0 3 -161 c3 -155 4 -161 27 -180 32 -26 63 -24 95 6 26 24 26
24 26 180 l0 156 88 -3 87 -3 3 -157 c2 -156 3 -157 29 -177 33 -26 53 -26 86
0 26 20 27 21 29 177 l3 157 77 3 76 3 4 -156 3 -157 28 -24 c36 -31 62 -30
92 1 24 24 25 28 25 180 l0 155 89 0 90 0 3 -161 c3 -145 5 -162 22 -175 21
-15 74 -19 92 -6 27 18 34 56 34 196 l0 146 78 0 c174 0 282 112 282 292 l0
68 155 0 c142 0 157 2 175 20 29 29 25 66 -9 101 l-29 29 -146 0 -146 0 0 90
0 90 150 0 c147 0 152 1 175 25 32 31 32 69 0 100 -23 24 -28 25 -175 25
l-150 0 0 90 0 90 150 0 c147 0 152 1 175 25 14 13 25 36 25 50 0 14 -11 37
-25 50 -23 24 -28 25 -175 25 l-150 0 0 90 0 90 149 0 c135 0 151 2 175 21 36
28 36 80 0 108 -24 19 -40 21 -175 21 l-149 0 0 79 c0 182 -106 291 -282 291
l-78 0 0 144 c0 131 -2 146 -21 170 -18 23 -28 27 -62 24 -60 -4 -67 -24 -67
-195 l0 -143 -90 0 -90 0 0 153 c0 134 -2 156 -17 169 -25 22 -54 28 -85 17z
m547 -499 c53 -25 69 -39 88 -77 15 -29 17 -98 17 -698 0 -742 3 -709 -68
-763 l-35 -27 -657 -3 -656 -3 -44 24 c-30 16 -51 37 -67 67 l-23 43 0 650 c0
458 3 661 11 688 7 21 24 50 39 64 57 54 54 54 730 54 596 1 627 0 665 -19z"/>
<path d="M2935 2623 c-16 -2 -86 -18 -153 -34 -452 -110 -699 -294 -762 -568
-24 -102 1 -277 55 -380 13 -25 14 -42 6 -91 -11 -64 -5 -157 11 -177 11 -13
34 -7 61 16 16 13 17 25 11 101 -5 72 -3 99 15 166 28 100 126 300 185 379
104 135 236 253 362 321 l69 37 -80 -84 c-128 -134 -188 -206 -269 -326 -122
-181 -196 -343 -196 -428 l0 -42 83 -6 c221 -15 383 45 521 193 62 68 104 148
138 265 21 74 23 98 23 335 0 140 -4 272 -8 293 -8 38 -8 39 -72 30z"/>
</g>
</svg>
